<?xml version="1.0" standalone="no"?><svg xmlns:xlink="http://www.w3.org/1999/xlink" xmlns="http://www.w3.org/2000/svg" viewBox="0 0 1000 599.9860515858848" preserveAspectRatio="xMaxYMax slice"><g transform="scale(1.6605254898965325)"><rect x="0" y="0" width="602.2216666666666" height="361.33299999999997" fill="#ffffff"/><circle cx="30.11" cy="30.11" r="6.02" fill="#fff3c8"/><circle cx="90.33" cy="30.11" r="6.02" fill="#fff7d7"/><circle cx="150.55" cy="30.11" r="6.02" fill="#ffdd63"/><circle cx="210.78" cy="30.11" r="6.02" fill="#3fbbb8"/><circle cx="271" cy="30.11" r="6.02" fill="#29b4af"/><circle cx="331.21999999999997" cy="30.11" r="6.02" fill="#28a6ff"/><circle cx="391.44" cy="30.11" r="6.02" fill="#ff8eb5"/><circle cx="451.65999999999997" cy="30.11" r="6.02" fill="#e2f5f4"/><circle cx="511.89" cy="30.11" r="6.02" fill="#87cdff"/><circle cx="572.11" cy="30.11" r="6.02" fill="#bee4ff"/><circle cx="30.11" cy="90.33" r="6.02" fill="#26a6ff"/><circle cx="90.33" cy="90.33" r="6.02" fill="#ffe68c"/><circle cx="150.55" cy="90.33" r="6.02" fill="#4ab4ff"/><circle cx="210.78" cy="90.33" r="6.02" fill="#1da2ff"/><circle cx="271" cy="90.33" r="6.02" fill="#ffdd61"/><circle cx="331.21999999999997" cy="90.33" r="6.02" fill="#fff4f8"/><circle cx="391.44" cy="90.33" r="6.02" fill="#ffeeb1"/><circle cx="451.65999999999997" cy="90.33" r="6.02" fill="#23a4ff"/><circle cx="511.89" cy="90.33" r="6.02" fill="#ffaeca"/><circle cx="572.11" cy="90.33" r="6.02" fill="#dcf1ff"/><circle cx="30.11" cy="150.55" r="6.02" fill="#78cfcd"/><circle cx="90.33" cy="150.55" r="6.02" fill="#ffc8db"/><circle cx="150.55" cy="150.55" r="6.02" fill="#fff3c5"/><circle cx="210.78" cy="150.55" r="6.02" fill="#83d3d1"/><circle cx="271" cy="150.55" r="6.02" fill="#fff9fb"/><circle cx="331.21999999999997" cy="150.55" r="6.02" fill="#0b9bff"/><circle cx="391.44" cy="150.55" r="6.02" fill="#bce7e6"/><circle cx="451.65999999999997" cy="150.55" r="6.02" fill="#fffae5"/><circle cx="511.89" cy="150.55" r="6.02" fill="#90d1ff"/><circle cx="572.11" cy="150.55" r="6.02" fill="#67c9c6"/><circle cx="30.11" cy="210.78" r="6.02" fill="#fffffe"/><circle cx="90.33" cy="210.78" r="6.02" fill="#ff99bc"/><circle cx="150.55" cy="210.78" r="6.02" fill="#4cc0bc"/><circle cx="210.78" cy="210.78" r="6.02" fill="#6bc2ff"/><circle cx="271" cy="210.78" r="6.02" fill="#fff3c8"/><circle cx="331.21999999999997" cy="210.78" r="6.02" fill="#d2edff"/><circle cx="391.44" cy="210.78" r="6.02" fill="#ff6398"/><circle cx="451.65999999999997" cy="210.78" r="6.02" fill="#9fd7ff"/><circle cx="511.89" cy="210.78" r="6.02" fill="#2db5b1"/><circle cx="572.11" cy="210.78" r="6.02" fill="#ff7eaa"/><circle cx="30.11" cy="271" r="6.02" fill="#ffe586"/><circle cx="90.33" cy="271" r="6.02" fill="#e9f6ff"/><circle cx="150.55" cy="271" r="6.02" fill="#77c7ff"/><circle cx="210.78" cy="271" r="6.02" fill="#65c8c5"/><circle cx="271" cy="271" r="6.02" fill="#ff6499"/><circle cx="331.21999999999997" cy="271" r="6.02" fill="#79d0cd"/><circle cx="391.44" cy="271" r="6.02" fill="#ffa4c3"/><circle cx="451.65999999999997" cy="271" r="6.02" fill="#ff5790"/><circle cx="511.89" cy="271" r="6.02" fill="#fff2c1"/><circle cx="572.11" cy="271" r="6.02" fill="#87cdff"/><circle cx="30.11" cy="331.21999999999997" r="6.02" fill="#0f9cff"/><circle cx="90.33" cy="331.21999999999997" r="6.02" fill="#ffdf6a"/><circle cx="150.55" cy="331.21999999999997" r="6.02" fill="#7dd1ce"/><circle cx="210.78" cy="331.21999999999997" r="6.02" fill="#ff88b1"/><circle cx="271" cy="331.21999999999997" r="6.02" fill="#ffdc5d"/><circle cx="331.21999999999997" cy="331.21999999999997" r="6.02" fill="#ff78a6"/><circle cx="391.44" cy="331.21999999999997" r="6.02" fill="#0b9aff"/><circle cx="451.65999999999997" cy="331.21999999999997" r="6.02" fill="#ffdbe7"/><circle cx="511.89" cy="331.21999999999997" r="6.02" fill="#ffbed4"/><circle cx="572.11" cy="331.21999999999997" r="6.02" fill="#fdfefe"/></g></svg>